<?xml version="1.0" encoding="utf-8"?>
<!-- Generator: Adobe Illustrator 24.3.0, SVG Export Plug-In . SVG Version: 6.00 Build 0)  -->
<svg version="1.1" id="Layer_1" xmlns="http://www.w3.org/2000/svg" xmlns:xlink="http://www.w3.org/1999/xlink" x="0px" y="0px"
	 viewBox="-50 -50 600 600" style="enable-background:new -50 -50 600 600;" xml:space="preserve">
<style type="text/css">
	.st0{fill:#FFFFFF;}
</style>
<g>
	<g>
		<path class="st0" fill-opacity="0" d="M477.5,280.4l-1.2,0.1c-1.4,0-2.8,0-4.1,0C473.9,280.5,475.7,280.4,477.5,280.4z"/>
		<path class="st0" fill-opacity="0" d="M407,280.5c-1.3,0-2.7,0-4.1,0l-1.2-0.1C403.6,280.4,405.3,280.5,407,280.5z"/>
	</g>
</g>
<g>
	<g>
		<path class="st0" d="M403.2,280.5c-0.5,0-0.9,0-1.4,0c0.4,0,0.8,0,1.2,0L403.2,280.5z"/>
		<path class="st0" d="M477.5,280.5c-0.5,0-0.9,0-1.4,0l0.2,0C476.7,280.5,477.1,280.5,477.5,280.5z"/>
	</g>
</g>
<path fill="#4EF982" d="M344.8,250c50.6-8,113.2-32.1,140.9-78.3c5-8.3,8.7-17.7,8.7-27.4c0-8-2.6-16-7.3-22.5c-5.9-8-14.7-13.4-24-16.8
	c-17.2-6.3-37.4-3-51.2-16.8C398,74.4,401.3,54.1,395,37c-3.4-9.3-8.9-18.1-16.9-24c-6.5-4.7-14.5-7.3-22.5-7.3
	c-9.7,0-19.1,3.7-27.4,8.7C282.1,42,258,104.6,250,155.2c-8-50.6-32.1-113.2-78.3-140.9c-8.3-5-17.7-8.7-27.4-8.7
	c-8,0-16,2.6-22.5,7.3c-8,5.9-13.4,14.7-16.9,24c-6.3,17.2-3,37.4-16.8,51.2C74.4,102,54.1,98.6,37,105c-9.3,3.4-18.1,8.9-24,16.8
	c-4.7,6.5-7.3,14.5-7.3,22.5c0,9.7,3.7,19.1,8.7,27.4c27.7,46.2,90.3,70.3,140.9,78.3c-50.6,8-113.2,32.1-140.9,78.3
	c-5,8.3-8.7,17.7-8.7,27.4c0,8,2.6,16,7.3,22.5c5.9,8,14.7,13.4,24,16.8c17.2,6.3,37.4,3,51.2,16.8c13.8,13.8,10.5,34,16.8,51.2
	c3.4,9.3,8.9,18.1,16.9,24c6.5,4.7,14.5,7.3,22.5,7.3c9.7,0,19.1-3.7,27.4-8.7C217.9,458,242,395.3,250,344.8
	c8,50.6,32.1,113.2,78.3,140.9c8.3,5,17.7,8.7,27.4,8.7c8,0,16-2.6,22.5-7.3c8-5.9,13.4-14.7,16.9-24c6.3-17.2,3-37.4,16.8-51.2
	c13.8-13.8,34-10.5,51.2-16.8c9.3-3.4,18.1-8.9,24-16.8c4.7-6.5,7.3-14.5,7.3-22.5c0-9.7-3.7-19.1-8.7-27.4
	C457.9,282.1,395.3,258,344.8,250z M245.6,250.7c-2.1,0.8-6.6,2-12.7,1.7c-9-0.5,12.8-0.1-58.8-2.4c71.6-2.3,49.7-1.9,58.8-2.4
	c6-0.4,10.6,0.8,12.7,1.6C246.6,249.7,246.6,250.3,245.6,250.7z M252.4,266.7c-0.5,8.8-0.1-12.5-2.4,57.4
	c-2.3-69.9-1.8-48.6-2.4-57.4c-0.3-5.9,0.8-10.3,1.7-12.4c0.4-1,1.1-1,1.5,0C251.6,256.3,252.7,260.8,252.4,266.7z M250.7,245.7
	c-0.4,1-1.1,1-1.5,0c-0.8-2.1-2-6.5-1.7-12.4c0.5-8.8,0.1,12.5,2.4-57.4c2.3,69.9,1.8,48.6,2.4,57.4
	C252.7,239.2,251.6,243.6,250.7,245.7z M267.1,252.4c-6,0.3-10.6-0.8-12.7-1.7c-1-0.4-1-1.1,0-1.5c2.1-0.8,6.6-2,12.7-1.6
	c9,0.5-12.8,0.1,58.8,2.4C254.3,252.3,276.1,251.8,267.1,252.4z"/>
</svg>
