<?xml version="1.0" encoding="iso-8859-1"?>
<!-- Generator: Adobe Illustrator 27.0.0, SVG Export Plug-In . SVG Version: 6.00 Build 0)  -->
<svg version="1.1" xmlns="http://www.w3.org/2000/svg" xmlns:xlink="http://www.w3.org/1999/xlink" x="0px" y="0px"
	 viewBox="0 0 2000 2000" style="enable-background:new 0 0 2000 2000;" xml:space="preserve">
<g id="Clover">
	<g style="display:none;">
		<g style="display:inline;">
			<path d="M1712.012,489.133c-12.406-14.71-31.517-25.863-49.102-33.632c-39.246-17.315-84.808-8.096-117.916-38.576
				c-20.606-18.984-25.493-41.493-30.397-67.201c-3.653-19.171-12.649-36.392-25.817-51.18
				c-20.54-23.024-48.956-39.622-78.118-50.681c-3.426-1.31-6.885-2.59-10.408-3.635c0,0-108.791-40.557-220.829,38.997
				c-112.038,79.555-170.493,285.462-170.493,474.21v212.146c0,0,167.473-258.039,379.128-380.912
				c-6.852,4.399-220.229,145.024-358.019,407.43h22.732c0,0,386.451,17.159,623.518-177.829
				C1861.389,666.027,1712.158,489.304,1712.012,489.133z M1513.915,500.052c-99.048-24.958-43.841-113.873-139.642-210.587
				c0,0,63.326,42.117,86.058,132.592c22.732,90.459,149.352,56.172,207.807,199.605
				C1666.433,618.714,1611.421,524.62,1513.915,500.052z"/>
		</g>
		<g style="display:inline;">
			<path d="M323.711,818.272C560.777,1013.259,947.228,996.1,947.228,996.1h22.732C832.17,733.694,618.794,593.069,611.942,588.67
				c211.655,122.873,379.128,380.912,379.128,380.912V757.436c0-188.748-58.455-394.655-170.493-474.21
				s-220.829-38.997-220.829-38.997c-3.523,1.045-6.982,2.324-10.408,3.635c-29.163,11.059-57.578,27.657-78.118,50.681
				c-13.168,14.788-22.164,32.009-25.817,51.18c-4.904,25.707-9.791,48.217-30.397,67.201
				c-33.108,30.48-78.67,21.261-117.916,38.576c-17.585,7.768-36.696,18.922-49.102,33.632
				C287.842,489.304,138.611,666.027,323.711,818.272z M331.862,621.662c58.455-143.433,185.074-109.146,207.807-199.605
				c22.732-90.474,86.058-132.592,86.058-132.592c-95.801,96.714-40.594,185.628-139.642,210.587
				C388.579,524.62,333.567,618.714,331.862,621.662z"/>
		</g>
		<g style="display:inline;">
			<path d="M1676.289,1181.728c-237.067-194.988-623.518-177.829-623.518-177.829h-22.732
				c137.791,262.406,351.167,403.031,358.019,407.43c-211.655-122.873-379.128-380.912-379.128-380.912v212.146
				c0,188.748,58.455,394.655,170.493,474.21c112.038,79.555,220.829,38.998,220.829,38.998c3.523-1.045,6.982-2.324,10.408-3.635
				c29.163-11.059,57.578-27.657,78.118-50.681c13.168-14.788,22.164-32.009,25.817-51.18c4.904-25.707,9.791-48.217,30.397-67.201
				c33.108-30.48,78.67-21.261,117.916-38.576c17.585-7.768,36.696-18.922,49.102-33.631
				C1712.158,1510.696,1861.389,1333.973,1676.289,1181.728z M1668.138,1378.338c-58.455,143.433-185.074,109.146-207.807,199.605
				c-22.732,90.474-86.058,132.591-86.058,132.591c95.801-96.714,40.594-185.628,139.642-210.586
				C1611.421,1475.38,1666.433,1381.286,1668.138,1378.338z"/>
		</g>
		<g style="display:inline;">
			<path d="M287.988,1510.867c12.406,14.71,31.517,25.863,49.102,33.631c39.246,17.315,84.808,8.096,117.916,38.576
				c20.606,18.984,25.493,41.494,30.397,67.201c3.653,19.171,12.649,36.392,25.817,51.18c20.54,23.024,48.956,39.622,78.118,50.681
				c3.426,1.311,6.885,2.59,10.408,3.635c0,0,108.791,40.557,220.829-38.998c112.038-79.555,170.493-285.462,170.493-474.21
				v-212.146c0,0-167.473,258.038-379.128,380.912c6.852-4.399,220.229-145.024,358.019-407.43h-22.732
				c0,0-386.451-17.159-623.518,177.829C138.611,1333.973,287.842,1510.696,287.988,1510.867z M486.085,1499.948
				c99.048,24.958,43.841,113.873,139.642,210.586c0,0-63.326-42.117-86.058-132.591c-22.732-90.459-149.352-56.172-207.807-199.605
				C333.567,1381.286,388.579,1475.38,486.085,1499.948z"/>
		</g>
	</g>
	<g style="display:none;">
		<g style="display:inline;">
			<path d="M1370.43,290.352c-199.29-179.24-359.01-8.15-369.95,4.08c-10.94-12.22-170.63-183.32-369.91-4.08
				c-172.04,154.75,37.07,352.34,37.07,352.34l274.93,299.81l57.49,57.49l16.94-16.94l52.87-52.87l-6.09,5.59l269.58-293.08
				C1333.36,642.692,1542.47,445.102,1370.43,290.352z"/>
			<path d="M1332.36,1357.308l-269.58-293.08l6.09,5.59l-52.87-52.87l-16.94-16.94l-57.49,57.49l-274.93,299.81
				c0,0-209.11,197.59-37.07,352.34c199.28,179.24,358.97,8.14,369.91-4.08c10.94,12.23,170.66,183.32,369.95,4.08
				C1541.47,1554.898,1332.36,1357.308,1332.36,1357.308z"/>
		</g>
		<g style="display:inline;">
			<path d="M290.352,629.57c-179.24,199.29-8.15,359.01,4.08,369.95c-12.22,10.94-183.32,170.63-4.08,369.91
				c154.75,172.04,352.34-37.07,352.34-37.07l299.81-274.93l57.49-57.49L983.052,983l-52.87-52.87l5.59,6.09l-293.08-269.58
				C642.692,666.64,445.102,457.53,290.352,629.57z"/>
			<path d="M1357.308,667.64l-293.08,269.58l5.59-6.09l-52.87,52.87l-16.94,16.94l57.49,57.49l299.81,274.93
				c0,0,197.59,209.11,352.34,37.07c179.24-199.28,8.14-358.97-4.08-369.91c12.23-10.94,183.32-170.66,4.08-369.95
				C1554.898,458.53,1357.308,667.64,1357.308,667.64z"/>
		</g>
	</g>
	<g>
		<g>
			<path d="M1020.498,1021.635c-4.64-2.504-9.321-4.937-13.909-7.533c-4.431-2.508-8.765-2.412-13.169-0.02
				c-4.633,2.516-9.286,4.993-13.931,7.487c-0.192-0.251-0.403-0.486-0.632-0.705c2.33-4.544,4.53-9.161,7.025-13.612
				c2.687-4.793,2.391-9.276,0.002-14.148c-2.312-4.715-6.199-8.7-6.813-14.223l-0.076,0.129c4.73,1.547,8.787,4.41,13.054,6.829
				c5.402,3.062,10.526,3.015,15.92,0c4.278-2.392,8.292-5.325,13.043-6.823l-0.077-0.129c-0.073,4.102-2.718,7.156-4.745,10.249
				c-4.934,7.525-5.116,14.632-0.045,22.116c2.012,2.97,3.994,6.073,4.982,9.629
				C1020.889,1021.109,1020.68,1021.361,1020.498,1021.635z"/>
			<path d="M1021.126,1020.88c0.23,0.262,0.459,0.524,1.115,1.274c-1.005-0.3-1.374-0.411-1.743-0.52
				C1020.68,1021.361,1020.889,1021.109,1021.126,1020.88z"/>
			<path d="M979.489,1021.57c-0.36,0.131-0.719,0.262-1.065,0.388c-0.315-0.687-0.021-0.933,0.433-1.092
				C979.086,1021.083,979.296,1021.318,979.489,1021.57z"/>
			<path d="M1021.011,979.016c0.167-0.185,0.333-0.371,0.52-0.579c0.146,0.653,0.102,0.998-0.598,0.451
				C1020.934,978.887,1021.011,979.016,1021.011,979.016z"/>
			<path d="M979.07,978.882c-0.375,0.45-0.609,0.31-0.174-0.8c0.032,0.31,0.065,0.621,0.098,0.93
				C978.994,979.011,979.07,978.882,979.07,978.882z"/>
		</g>
		<g>
			<path d="M1763.728,760.139c-14.178-267.661-248.096-259.621-264.479-258.709c0.905-16.377,8.973-250.28-258.681-264.451
				c-231.075-12.226-222.93,275.354-222.93,275.354l-12.403,286.661l2.843,68.123c3.571-8.422,7.361-16.497,12.325-23.992
				c-3.981,21.432-9.383,42.49-9.673,64.29c-0.346,24.77,9.617,31.424,32.301,21.553c21.376-9.313,39.93-23.257,58.69-36.798
				c6.272-4.547,12.417-9.249,18.632-13.88c1.414,2.744-0.757,3.981-1.987,5.621c-15.111,20.259-30.54,40.312-42.738,62.551
				c-3.415,6.23-6.435,12.643-8.202,19.544c-3.408,13.308,1.28,20.358,14.941,22.366c8.98,1.315,17.946,0.339,26.856-0.806
				c14.786-1.888,29.302-5.091,43.855-8.231c1.386-0.297,2.857-1.739,4.349-0.304c-8.57,5.515-17.812,9.567-27.478,13.506
				l65.832,2.758l292.594-12.226C1488.374,983.068,1775.954,991.214,1763.728,760.139z M1144.77,856.235
				c115.888-128.616,237.206-237.206,237.206-237.206S1273.385,740.347,1144.77,856.235z"/>
			<path d="M982.361,1487.667l11.978-286.831l-2.85-65.881c-2.934,6.696-5.996,13.336-9.348,20.082
				c-1.52-3.458-0.198-5.77,0.29-7.997c3.076-14.22,6.116-28.447,7.721-42.907l-1.336-30.851c-3.118-7.729-9.376-10.55-19.007-8.33
				c-13.103,3.019-24.438,9.956-35.582,17.07c-17.932,11.455-35.087,24.027-51.774,37.222c-0.99,0.792-1.867,2.291-3.974,1.301
				c14.482-18.936,28.737-37.901,41.133-58.131c5.932-9.666,11.695-19.459,14.58-30.547c2.942-11.328,0.212-18.399-8.549-21.461
				l-29.387-1.273c-11.406,1.195-22.67,3.719-33.962,5.918c-5.211,0.997-10.416,2.128-15.846,2.496
				c6.067-3.691,12.346-6.831,18.88-9.758l-71.206-3.083l-282.496,12.226c0,0-287.58-8.146-275.354,222.93
				c14.17,267.654,248.074,259.586,264.451,258.681c-0.912,16.384-8.952,250.302,258.709,264.479
				C990.507,1775.247,982.361,1487.667,982.361,1487.667z M621.765,1376.411c0,0,108.59-121.318,237.206-237.206
				C743.083,1267.82,621.765,1376.411,621.765,1376.411z"/>
			<path d="M934.441,967.866c-2.312-11.533-8.266-21.531-14.276-31.445c-11.151-18.406-24.155-35.525-37.031-52.757
				c-1.301-1.74-4.002-3.069-2.333-6.237c19.919,14.998,39.789,30.13,61.327,42.829c7.75,4.582,15.698,8.74,24.374,11.236
				c14.199,4.087,21.758-0.983,23.434-15.783c1.047-9.235-0.156-18.399-1.435-27.528c-2.171-15.408-5.848-30.54-8.641-45.934
				c8.061,13.774,13.661,28.652,20.068,44.477c0.573-1.322,1.131-2.645,1.683-3.96l3.627-83.771l-11.568-276.762
				c0,0,8.146-287.58-222.93-275.354c-267.661,14.177-259.621,248.095-258.709,264.479c-16.377-0.905-250.28-8.973-264.451,258.681
				c-12.226,231.075,275.354,222.93,275.354,222.93l271.19,11.738l87.618-3.797c2.298-0.912,4.617-1.846,6.979-2.793
				c-15.507-6.569-30.519-11.71-43.777-20.471c19.12,3.748,37.936,8.393,57.283,10.076c6.612,0.573,13.237,0.877,19.785-0.594
				C932.418,984.808,936.597,978.592,934.441,967.866z M623.179,617.614c0,0,121.318,108.59,237.206,237.206
				C731.77,738.933,623.179,617.614,623.179,617.614z"/>
			<path d="M1487.935,1488.678c16.384,0.912,250.302,8.952,264.479-258.709c12.226-231.075-275.354-222.93-275.354-222.93
				l-281.28-11.745l-80.914,3.373c-0.679,0.283-1.358,0.566-2.044,0.856c15.012,6.23,29.451,11.717,43.346,18.837
				c-2.517,2.517-4.752,0.523-6.795,0.078c-17.557-3.797-35.058-7.778-53.054-9.016c-6.152-0.41-12.304-0.396-18.3,1.287
				c-8.393,2.369-12.063,7.708-11.052,16.384c1.089,9.348,5.318,17.593,9.793,25.633c13.117,23.639,29.592,44.951,45.813,66.489
				c-2.517,1.711-3.776-0.481-5.317-1.626c-20.442-15.266-40.623-30.907-63.039-43.282c-7.241-4.002-14.658-7.7-22.882-9.206
				c-10.599-1.945-16.737,2.298-18.972,12.862c-1.541,7.269-1.075,14.609-0.339,21.906c1.626,15.769,5.148,31.212,8.606,46.662
				c0.509,2.206,1.761,4.363,0.615,8.181c-8.33-14.156-13.364-28.624-19.806-43.819c-1.251,3.147-2.489,6.237-3.727,9.298
				l-3.373,80.646l11.985,276.938c0,0-8.146,287.58,222.93,275.354C1496.909,1738.958,1488.841,1505.055,1487.935,1488.678z
				 M1143.355,1140.619c128.616,115.888,237.206,237.206,237.206,237.206S1259.243,1269.234,1143.355,1140.619z"/>
		</g>
	</g>
</g>
<g id="Layer_1">
</g>
</svg>
